<svg xmlns="http://www.w3.org/2000/svg"  viewBox="0 0 64 64" width="64px" height="64px"><path fill="#7bbeeb" d="M51,7H13c-3.314,0-6,2.686-6,6v38c0,3.314,2.686,6,6,6h38c3.314,0,6-2.686,6-6V13	C57,9.686,54.314,7,51,7z"/><path fill="#ace3ff" d="M54,50H10c-1.657,0-3,1.343-3,3v0c0,2.209,1.791,4,4,4h42c2.209,0,4-1.791,4-4v0	C57,51.343,55.657,50,54,50z"/><path fill="#8d6c9f" d="M51,6H13c-3.859,0-7,3.14-7,7v38c0,3.86,3.141,7,7,7h38c3.859,0,7-3.14,7-7V13C58,9.14,54.859,6,51,6	z M56,51c0,2.757-2.243,5-5,5H13c-2.757,0-5-2.243-5-5V13c0-2.757,2.243-5,5-5h38c2.757,0,5,2.243,5,5V51z"/><path fill="#8d6c9f" d="M17,48c-0.553,0-1,0.448-1,1v2c0,0.552,0.447,1,1,1s1-0.448,1-1v-2C18,48.448,17.553,48,17,48z"/><path fill="#8d6c9f" d="M12,48c-0.553,0-1,0.448-1,1v2c0,0.552,0.447,1,1,1s1-0.448,1-1v-2C13,48.448,12.553,48,12,48z"/><path fill="#8d6c9f" d="M32,48c-0.553,0-1,0.448-1,1v2c0,0.552,0.447,1,1,1s1-0.448,1-1v-2C33,48.448,32.553,48,32,48z"/><path fill="#8d6c9f" d="M37,48c-0.553,0-1,0.448-1,1v2c0,0.552,0.447,1,1,1s1-0.448,1-1v-2C38,48.448,37.553,48,37,48z"/><path fill="#8d6c9f" d="M42,48c-0.553,0-1,0.448-1,1v2c0,0.552,0.447,1,1,1s1-0.448,1-1v-2C43,48.448,42.553,48,42,48z"/><path fill="#8d6c9f" d="M47,48c-0.553,0-1,0.448-1,1v2c0,0.552,0.447,1,1,1s1-0.448,1-1v-2C48,48.448,47.553,48,47,48z"/><path fill="#8d6c9f" d="M52,48c-0.553,0-1,0.448-1,1v2c0,0.552,0.447,1,1,1s1-0.448,1-1v-2C53,48.448,52.553,48,52,48z"/><path fill="#8d6c9f" d="M22,48c-0.553,0-1,0.448-1,1v2c0,0.552,0.447,1,1,1s1-0.448,1-1v-2C23,48.448,22.553,48,22,48z"/><path fill="#8d6c9f" d="M27,48c-0.553,0-1,0.448-1,1v2c0,0.552,0.447,1,1,1s1-0.448,1-1v-2C28,48.448,27.553,48,27,48z"/><path fill="#fff8ee" d="M31.815,16.018l-1.187-2.041c-0.57-0.982-1.823-1.311-2.798-0.736	c-0.975,0.574-1.302,1.837-0.731,2.819l2.274,3.911"/><path fill="#fff8ee" d="M26.818,32.762l9.711-16.698c0.571-0.982,0.244-2.245-0.73-2.821	c-0.976-0.576-2.23-0.246-2.798,0.736L22.108,32.707"/><path fill="#fff8ee" d="M34.009,34.134l-0.233-0.397c-0.202-0.308-0.425-0.596-0.679-0.853H16.045	c-1.13,0-2.045,0.914-2.045,2.039c0,1.125,0.915,2.039,2.045,2.039H34.31C34.575,36.065,34.502,35.063,34.009,34.134z"/><path fill="#fff8ee" d="M21.991,41.062c-0.664-0.764-1.623-1.283-2.768-1.318h-0.005c-0.432-0.012-0.856,0.036-1.271,0.12	l-0.664,1.142c-0.571,0.982-0.244,2.245,0.731,2.821c0.325,0.192,0.682,0.283,1.032,0.283c0.702,0,1.387-0.365,1.766-1.018	L21.991,41.062z"/><path fill="#fff8ee" d="M41.809,32.884h6.146c1.13,0,2.045,0.914,2.045,2.039c0,1.125-0.915,2.039-2.045,2.039h-3.848"/><path fill="#fff8ee" d="M46.347,41.006L35.968,23.161l-1.04,1.79c-0.605,1.305-0.687,2.781-0.252,4.137l8.144,14.003	c0.38,0.654,1.064,1.018,1.766,1.018c0.35,0,0.708-0.091,1.032-0.283C46.592,43.251,46.918,41.988,46.347,41.006z"/><path fill="#8d6c9f" d="M34.871,33.628l-0.259-0.438c-0.255-0.39-0.518-0.719-0.805-1.009 c-0.188-0.189-0.444-0.297-0.711-0.297h-4.611l8.908-15.317c0.845-1.453,0.359-3.331-1.086-4.186 c-0.704-0.415-1.525-0.529-2.313-0.322c-0.789,0.208-1.448,0.712-1.856,1.417l-0.322,0.553l-0.322-0.553 c-0.411-0.707-1.071-1.211-1.86-1.418c-0.789-0.206-1.609-0.092-2.311,0.322c-1.446,0.852-1.935,2.729-1.088,4.184l2.053,3.53 l-6.857,11.79h-5.385c-1.679,0-3.045,1.363-3.045,3.039s1.366,3.039,3.045,3.039H34.31c0.443,0,0.834-0.292,0.959-0.717 c0.351-1.19,0.217-2.462-0.377-3.58C34.885,33.653,34.878,33.641,34.871,33.628z M27.963,15.558 c-0.295-0.507-0.127-1.159,0.374-1.455c0.24-0.141,0.52-0.18,0.789-0.11c0.27,0.071,0.496,0.244,0.638,0.488l0.894,1.537 l-1.214,2.087L27.963,15.558z M33.867,14.479c0.14-0.243,0.366-0.415,0.635-0.486c0.269-0.069,0.55-0.031,0.789,0.109 c0.501,0.297,0.669,0.951,0.375,1.458l-9.493,16.323h-2.428L33.867,14.479z M16.045,35.962c-0.577,0-1.045-0.466-1.045-1.039 s0.469-1.039,1.045-1.039H32.65c0.093,0.115,0.182,0.237,0.263,0.36l0.222,0.378c0.222,0.424,0.332,0.883,0.325,1.34H16.045z"/><path fill="#8d6c9f" d="M19.245,38.744c-0.482-0.009-0.969,0.033-1.497,0.14c-0.28,0.057-0.522,0.23-0.666,0.478 l-0.664,1.142c-0.846,1.455-0.358,3.332,1.085,4.184c0.467,0.276,1,0.423,1.542,0.423c1.079,0,2.087-0.58,2.631-1.516l1.179-2.029 c0.215-0.369,0.171-0.835-0.11-1.157C21.85,39.375,20.609,38.785,19.245,38.744z M19.947,42.589 c-0.28,0.48-0.943,0.661-1.426,0.376c-0.501-0.296-0.67-0.949-0.375-1.456l0.427-0.734c0.215-0.026,0.42-0.036,0.619-0.03 c0.559,0.017,1.085,0.193,1.53,0.509L19.947,42.589z"/><path fill="#8d6c9f" d="M47.955,31.884h-5.757l-5.366-9.226c-0.358-0.616-1.372-0.616-1.729,0.001l-1.083,1.872 c-0.708,1.526-0.814,3.253-0.297,4.863c0.022,0.068,0.051,0.135,0.088,0.197l8.144,14.004c0.544,0.934,1.552,1.514,2.63,1.514 c0.542,0,1.076-0.146,1.541-0.422c1.445-0.853,1.932-2.729,1.085-4.185l-1.478-2.541h2.221c1.679,0,3.045-1.363,3.045-3.039 S49.634,31.884,47.955,31.884z M45.107,42.966c-0.48,0.285-1.141,0.108-1.424-0.377l-8.086-13.904 c-0.328-1.102-0.245-2.271,0.195-3.23l0.176-0.303l9.514,16.357C45.777,42.016,45.61,42.669,45.107,42.966z M47.955,35.962H44.57 l-1.209-2.078h4.593c0.577,0,1.045,0.466,1.045,1.039S48.531,35.962,47.955,35.962z"/></svg>