<svg xmlns="http://www.w3.org/2000/svg"  viewBox="0 0 64 64" width="64px" height="64px"><path fill="#85cbf8" d="M48.06,11.14,2.71,17.75a2,2,0,0,0-1.71,2V52.27a2,2,0,0,0,1.71,2l45.35,6.61a4,4,0,0,0,1.84-.16l9.73-3.24A2,2,0,0,0,61,55.56V16.44a2,2,0,0,0-1.37-1.9L49.9,11.3A4,4,0,0,0,48.06,11.14Z"/><path fill="#7bbeeb" d="M61,57l-8.05,2.68A3,3,0,0,1,49,56.84V15.16a3,3,0,0,1,3.95-2.85L61,15Z"/><path fill="#faefde" d="M35 46L15 43 15 29 35 26 35 46z"/><path fill="#efd8be" d="M18,41V31a2,2,0,0,0-2-2H15V43h1A2,2,0,0,0,18,41Z"/><path fill="#8d6c9f" d="M59.95,13.6l-9.73-3.24a5,5,0,0,0-2.3-.21h0L42,11V9.29a5,5,0,0,0-5.72-4.95l-1.22.18A7,7,0,0,0,28,1.1L20,2.26a7,7,0,0,0-6,6.93v5.9L2.57,16.76a3,3,0,0,0-2.57,3V52.27a3,3,0,0,0,2.57,3l45.35,6.61a4.89,4.89,0,0,0,.72.05,5,5,0,0,0,1.59-.26l9.73-3.24A3,3,0,0,0,62,55.56V16.44A3,3,0,0,0,59.95,13.6ZM36.57,6.32a3,3,0,0,1,3.43,3v2l-4,.58V8a7,7,0,0,0-.19-1.59ZM34,8v4.16l-8,1.17V10.46a3,3,0,0,1,2.57-3l5.25-.77A5,5,0,0,1,34,8ZM16,9.19a5,5,0,0,1,4.28-4.95l8-1.17a4.92,4.92,0,0,1,4.57,1.77l-4.57.67A5,5,0,0,0,24,10.46v3.18L16,14.8ZM60,55.56a1,1,0,0,1-.68.95l-9.73,3.24a3.05,3.05,0,0,1-1.38.12L2.86,53.26a1,1,0,0,1-.86-1V19.73a1,1,0,0,1,.86-1L48.2,12.13h0a3,3,0,0,1,1.38.12l9.73,3.24a1,1,0,0,1,.68.95Z"/><path fill="#8d6c9f" d="M34.85 25l-20 3A1 1 0 0 0 14 29V43a1 1 0 0 0 .85 1l20 3H35a1 1 0 0 0 1-1V26a1 1 0 0 0-.35-.76A1 1 0 0 0 34.85 25zM34 35H26V28.36l8-1.2zM16 29.86l8-1.2V35H16zM16 37h8v6.34l-8-1.2zm10 6.64V37h8v7.84zM50 55H48a1 1 0 0 0 0 2h2a1 1 0 0 0 0-2zM50 50H48a1 1 0 0 0 0 2h2a1 1 0 0 0 0-2zM50 45H48a1 1 0 0 0 0 2h2a1 1 0 0 0 0-2zM50 40H48a1 1 0 0 0 0 2h2a1 1 0 0 0 0-2zM50 35H48a1 1 0 0 0 0 2h2a1 1 0 0 0 0-2zM50 30H48a1 1 0 0 0 0 2h2a1 1 0 0 0 0-2zM50 25H48a1 1 0 0 0 0 2h2a1 1 0 0 0 0-2zM50 20H48a1 1 0 0 0 0 2h2a1 1 0 0 0 0-2zM50 15H48a1 1 0 0 0 0 2h2a1 1 0 0 0 0-2z"/></svg>